<svg xmlns="http://www.w3.org/2000/svg" xmlns:xlink="http://www.w3.org/1999/xlink" width="74" height="72" viewBox="0 0 74 72"><defs><style>.a{fill:#fff;stroke:#707070;opacity:0.4;}.b{clip-path:url(#a);}.c{fill:#a6d4f0;}.d{fill:#56aade;}</style><clipPath id="a"><rect class="a" width="74" height="72" transform="translate(26 585)"/></clipPath></defs><g class="b" transform="translate(-26 -585)"><g transform="translate(39.674 598)"><path class="c" d="M20.269,10.2V2.048C20.106,2.035,19.952,2,19.786,2H3.378A3.382,3.382,0,0,0,0,5.378V19.856a1.449,1.449,0,0,0,.764,1.276,1.43,1.43,0,0,0,.683.172,1.449,1.449,0,0,0,.8-.241l4.843-3.218a2.363,2.363,0,0,1,1.324-.4h11.37a5.282,5.282,0,0,0,3.872-1.7A6.257,6.257,0,0,1,20.269,10.2Z" transform="translate(0 1.861)"/><path class="c" d="M33.716,19.3a1.441,1.441,0,0,1-.8-.243L28.1,15.848a2.391,2.391,0,0,0-1.338-.405H15.378A3.382,3.382,0,0,1,12,12.065V3.378A3.382,3.382,0,0,1,15.378,0H31.786a3.382,3.382,0,0,1,3.378,3.378V17.856A1.449,1.449,0,0,1,33.716,19.3Z" transform="translate(11.164)"/><circle class="d" cx="5.791" cy="5.791" r="5.791" transform="translate(4.826 23.164)"/><circle class="d" cx="5.791" cy="5.791" r="5.791" transform="translate(29.92 23.164)"/><path class="d" d="M15.925,19H5.308A5.313,5.313,0,0,0,0,24.308v2.9a1.448,1.448,0,0,0,1.448,1.448H19.786A1.448,1.448,0,0,0,21.234,27.2v-2.9A5.313,5.313,0,0,0,15.925,19Z" transform="translate(0 17.676)"/><path class="d" d="M28.925,19H18.308A5.313,5.313,0,0,0,13,24.308v2.9a1.448,1.448,0,0,0,1.448,1.448H32.786A1.448,1.448,0,0,0,34.234,27.2v-2.9A5.313,5.313,0,0,0,28.925,19Z" transform="translate(12.094 17.676)"/></g></g></svg>