<svg xmlns="http://www.w3.org/2000/svg" width="448.384" height="431.965" viewBox="0 0 448.384 431.965"><defs><style>.a{fill:#3f3d56;}.b{fill:#2f2e41;}.c{fill:#fbbebe;}.d{fill:#575a89;}.e{opacity:0.4;}.f{fill:#6bd5e1;}.g{fill:#f2f2f2;}.h{fill:#e6e6e6;}</style></defs><g transform="translate(-231.585 -87.764)"><rect class="a" width="6.798" height="268.535" transform="translate(579.414 236.876)"/><path class="a" d="M1048.115,413.475c.433,93.9-65.631,170.327-65.631,170.327s-66.765-75.815-67.2-169.715,65.631-170.327,65.631-170.327S1047.683,319.576,1048.115,413.475Z" transform="translate(-399.163 -142.377)"/><rect class="a" width="3.497" height="138.114" transform="translate(446.784 363.226)"/><path class="a" d="M836.252,608.937c.223,48.295-33.755,87.6-33.755,87.6s-34.339-38.993-34.561-87.288,33.755-87.6,33.755-87.6S836.029,560.642,836.252,608.937Z" transform="translate(-353.702 -228.11)"/><ellipse class="a" cx="94.733" cy="14.521" rx="94.733" ry="14.521" transform="translate(424.466 490.687)"/><path class="b" d="M903.4,331.968c-8.026-13.561-23.9-14.193-23.9-14.193s-15.473-1.979-25.4,18.676c-9.252,19.251-22.02,37.839-2.056,42.346l3.606-11.224,2.233,12.06a78.115,78.115,0,0,0,8.542.146c21.38-.69,41.742.2,41.086-7.47C906.639,362.108,911.124,345.017,903.4,331.968Z" transform="translate(-376.389 -165.196)"/><path class="c" d="M889.234,372.789s10.372,14.521,4.149,26.276,14.521,24.2,14.521,24.2l15.213-33.191s-17.979-11.755-13.138-22.819Z" transform="translate(-391.125 -180.478)"/><circle class="c" cx="17.979" cy="17.979" r="17.979" transform="translate(487.045 162.578)"/><path class="c" d="M809.255,371.042l15.025-19.385s5.29-20.319,12.952-19.289-3.026,24.368-3.026,24.368l-14.929,21.457Z" transform="translate(-366.451 -169.702)"/><path class="c" d="M871.469,709.089l4.84,25.585,10.372,2.766-2.766-30.425Z" transform="translate(-352.615 -249.865)"/><path class="c" d="M1022.469,667.547l18.67,25.585,7.606,3.457,6.223-10.372-18.67-24.2Z" transform="translate(-399.201 -235.982)"/><path class="d" d="M897.032,419.917,885.5,404.732s-22.348,4.121-24.422,6.2,5.532,40.106,5.532,40.106,1.383,10.372,7.606,15.9l6.223,4.149,51.17-10.372,1.924-22.768a59.752,59.752,0,0,0-15.754-45.689h0l-8.9,1.217Z" transform="translate(-382.327 -188.191)"/><path class="d" d="M842.711,407.683l-3.458-1.383-15.9-1.383s-5.532-1.383-4.149-4.149,2.766-3.457,0-4.149-3.458-1.383-2.766-3.457,4.84-6.223,4.84-6.223l-11.755-9.681s-.636.45-1.665,1.283c-5.836,4.725-24.3,21.774-10.782,38.823,15.9,20.053,34.574,31.808,49.787,27.659Z" transform="translate(-361.198 -183.563)"/><path class="b" d="M885.194,498.172v9.681s-6.223,11.755-4.149,22.819,2.766,16.6,2.766,16.6a94.408,94.408,0,0,0,4.84,27.659c4.84,13.83-11.064,104.414,8.989,105.8s31.117,2.766,37.34-4.149-10.372-125.85-10.372-125.85,56.7,118.244,68.457,113.4,41.489-15.9,38.032-22.128-90.584-144.52-90.584-144.52l-2.766-6.223Z" transform="translate(-388.468 -218.734)"/><path class="b" d="M927.49,791.232s-11.064-.692-11.064,2.766-5.532,15.213-5.532,15.213-4.149,13.83,6.915,12.447,17.979-13.83,17.979-13.83l-2.766-13.138Z" transform="translate(-397.573 -311.264)"/><path class="b" d="M1098.208,753.157s-9.681-6.223-8.989-2.074,1.383,15.213,6.223,15.9,19.362,4.84,20.053,6.223,17.287,6.915,17.287-2.074-10.372-15.9-10.372-15.9l-11.755-8.989s-7.606-.691-8.989,4.149S1098.208,753.157,1098.208,753.157Z" transform="translate(-452.813 -297.39)"/><circle class="b" cx="11.481" cy="11.481" r="11.481" transform="translate(493.57 141.166)"/><path class="b" d="M879.844,308.4a11.482,11.482,0,0,1,10.271-11.417,11.6,11.6,0,0,0-1.207-.065,11.481,11.481,0,1,0,1.209,22.9A11.482,11.482,0,0,1,879.844,308.4Z" transform="translate(-387.483 -158.779)"/><path class="b" d="M859.471,281.525l-15.687-8.218-21.664,3.362-4.482,19.8,11.158-.429,3.117-7.272v7.153l5.148-.2,2.988-11.579,1.868,12.326,18.3-.373Z" transform="translate(-336.008 -116.059)"/><path class="c" d="M905.035,498.023l-24.193.654s-20.643,4.017-19.485-4.315,21.3-5.418,21.3-5.418l22.045-3.363Z" transform="translate(-382.51 -216.983)"/><path class="d" d="M940.768,390.536a5.163,5.163,0,0,1,5.695,3.546c4.736,14.925,19.327,64.87,4.83,71.723-17.075,8.071-29.536,7.716-29.536,7.716l-6.67-16.421,6.072-5.7,6.482-41.679,3.106-17.668Z" transform="translate(-399.102 -187.642)"/><path class="e" d="M885.937,379.515l-2.766,27.659-24.2,10.372,26.968-6.223Z" transform="translate(-348.759 -148.826)"/><ellipse class="d" cx="2.423" cy="4.543" rx="2.423" ry="4.543" transform="translate(439.043 171.906) rotate(-73.69)"/><circle class="a" cx="1.666" cy="1.666" r="1.666" transform="translate(444.753 169.987)"/><g transform="translate(231.586 87.764)"><path class="a" d="M746.458,298.705h0a13.7,13.7,0,0,1,8,5.81l.957,1.481.048.061,16.78,4.91a1.223,1.223,0,0,1,.836,1.5l-1.3,4.776a1.223,1.223,0,0,1-1.509.856L753.481,313.4h0l-1.686.637a15.063,15.063,0,0,1-9.685.329h0Z" transform="translate(-539.082 -226.347)"/><ellipse class="f" cx="8.214" cy="3.714" rx="8.214" ry="3.714" transform="matrix(0.308, -0.951, 0.951, 0.308, 199.179, 86.928)"/><path class="e" d="M746.074,307.645c1.348-4.158.982-8.033-.793-8.876a1.722,1.722,0,0,1,.314.07c1.951.633,2.4,4.644,1,8.959s-4.115,7.3-6.067,6.668a1.717,1.717,0,0,1-.207-.083C742.241,314.626,744.748,311.732,746.074,307.645Z" transform="translate(-537.817 -226.392)"/><path class="f" d="M255.362,123.616,217.28,94.076A252.035,252.035,0,0,1,197.919,77.3c-10.856-10.347-25.592-18.62-42.75-23.025-41.685-10.7-74.708,8.273-89.728,36.135C42.489,132.981,24.9,202.069,126.668,165.293c22.257-8.043,44.786-8.9,61.868-13.134l61.855-12.753Z" transform="translate(-47.766 -51.242)"/><circle class="g" cx="2.047" cy="2.047" r="2.047" transform="translate(91.22 18.572)"/><path class="g" d="M452.119,85.406h-.533v-.533h-.1v.533h-.533v.1h.533v.533h.1V85.51h.533Z" transform="translate(-319.091 -60.056)"/><path class="g" d="M635.119,237.406h-.533v-.533h-.1v.533h-.533v.1h.533v.533h.1v-.533h.533Z" transform="translate(-448.581 -167.611)"/><path class="g" d="M622.119,284.406h-.533v-.533h-.1v.533h-.533v.1h.533v.533h.1v-.533h.533Z" transform="translate(-439.382 -200.868)"/><path class="g" d="M63.119,324.406h-.533v-.533h-.1v.533h-.533v.1h.533v.533h.1v-.533h.533Z" transform="translate(-43.835 -229.172)"/><path class="g" d="M143.119,106.406h-.533v-.533h-.1v.533h-.533v.1h.533v.533h.1v-.533h.533Z" transform="translate(-100.443 -74.916)"/><path class="g" d="M454.119,292.406h-.533v-.533h-.1v.533h-.533v.1h.533v.533h.1v-.533h.533Z" transform="translate(-320.506 -206.529)"/><path class="g" d="M263.119,42.406h-.533v-.533h-.1v.533h-.533v.1h.533v.533h.1V42.51h.533Z" transform="translate(-185.355 -29.629)"/><path class="h" d="M312.809,238.915l-.664.1c.208,1.327.371,2.684.491,4.026l.67-.058C313.186,241.626,313.019,240.258,312.809,238.915Z" transform="translate(-234.84 -184.039)"/><path class="h" d="M306.648,211.575l-.643.2c.389,1.287.737,2.605,1.032,3.918l.658-.149C307.394,214.213,307.04,212.88,306.648,211.575Z" transform="translate(-230.495 -164.694)"/><path class="h" d="M296.816,185.355l-.611.281c.561,1.225,1.088,2.482,1.564,3.74l.629-.237C297.916,187.867,297.386,186.592,296.816,185.355Z" transform="translate(-223.561 -146.141)"/><path class="h" d="M283.522,160.775l-.567.36c.722,1.135,1.415,2.31,2.059,3.488l.591-.322C284.955,163.109,284.253,161.922,283.522,160.775Z" transform="translate(-214.185 -128.748)"/><path class="h" d="M267,138.245l-.512.436c.871,1.023,1.719,2.094,2.521,3.175l.538-.4C268.736,140.362,267.88,139.281,267,138.245Z" transform="translate(-202.531 -112.806)"/><path class="h" d="M247.572,118.185l-.447.5c1.006.9,1.991,1.842,2.93,2.8l.482-.471C249.587,120.045,248.59,119.092,247.572,118.185Z" transform="translate(-188.832 -98.611)"/><path class="h" d="M225.622,100.965l-.377.556c1.117.751,2.222,1.553,3.284,2.38l.415-.529C227.868,102.536,226.751,101.726,225.622,100.965Z" transform="translate(-173.35 -86.426)"/><path class="h" d="M206.4,89.005v.76c.7.365,1.392.749,2.07,1.14l.336-.582Q207.627,89.64,206.4,89.005Z" transform="translate(-160.018 -77.964)"/><path class="h" d="M314.57,267.192l.672-.012c.012.679.013,1.361,0,2.028l-.672-.011C314.583,268.537,314.582,267.863,314.57,267.192Z" transform="translate(-236.556 -204.039)"/><path class="h" d="M177.809,435.915l-.664.1c.208,1.328.371,2.684.491,4.026l.67-.058C178.186,438.626,178.019,437.258,177.809,435.915Z" transform="translate(-139.314 -323.436)"/><path class="h" d="M171.648,408.575l-.643.2c.389,1.287.737,2.605,1.032,3.918l.658-.149C172.394,411.213,172.04,409.88,171.648,408.575Z" transform="translate(-134.97 -304.09)"/><path class="h" d="M161.816,382.355l-.611.281c.561,1.225,1.088,2.482,1.564,3.74l.629-.237C162.916,384.867,162.386,383.592,161.816,382.355Z" transform="translate(-128.035 -285.537)"/><path class="h" d="M148.522,357.775l-.567.36c.722,1.135,1.415,2.31,2.059,3.488l.591-.322C149.955,360.109,149.253,358.922,148.522,357.775Z" transform="translate(-118.659 -268.145)"/><path class="h" d="M132,335.245l-.512.436c.871,1.023,1.719,2.094,2.52,3.176l.538-.4C133.736,337.362,132.88,336.281,132,335.245Z" transform="translate(-107.005 -252.202)"/><path class="h" d="M112.572,315.185l-.447.5c1.006.9,1.991,1.842,2.93,2.8l.482-.471C114.587,317.045,113.59,316.092,112.572,315.185Z" transform="translate(-93.306 -238.008)"/><path class="h" d="M90.622,297.965l-.377.556c1.117.751,2.222,1.553,3.284,2.38l.415-.529C92.868,299.536,91.751,298.726,90.622,297.965Z" transform="translate(-77.824 -225.823)"/><path class="h" d="M71.4,286.005v.76c.7.365,1.392.749,2.07,1.14l.336-.582Q72.627,286.64,71.4,286.005Z" transform="translate(-64.493 -217.36)"/><path class="h" d="M179.57,464.192l.672-.012c.012.679.013,1.361,0,2.028l-.672-.01C179.583,465.538,179.582,464.863,179.57,464.192Z" transform="translate(-141.03 -343.436)"/><path class="h" d="M639.809,336.915l-.664.1c.208,1.327.371,2.684.491,4.026l.67-.059C640.186,339.626,640.019,338.258,639.809,336.915Z" transform="translate(-466.224 -253.384)"/><path class="h" d="M633.648,309.575l-.643.2c.389,1.287.737,2.605,1.032,3.918l.658-.149C634.394,312.213,634.04,310.88,633.648,309.575Z" transform="translate(-461.88 -234.038)"/><path class="h" d="M623.816,283.355l-.611.281c.561,1.225,1.088,2.482,1.564,3.74l.629-.237C624.915,285.867,624.386,284.592,623.816,283.355Z" transform="translate(-454.945 -215.485)"/><path class="h" d="M610.522,258.775l-.567.36c.722,1.135,1.415,2.31,2.058,3.488l.591-.322C611.955,261.109,611.253,259.922,610.522,258.775Z" transform="translate(-445.57 -198.092)"/><path class="h" d="M594,236.245l-.512.436c.871,1.023,1.719,2.094,2.521,3.175l.538-.4C595.737,238.362,594.88,237.281,594,236.245Z" transform="translate(-433.915 -182.15)"/><path class="h" d="M574.572,216.185l-.447.5c1.006.9,1.991,1.842,2.93,2.8l.482-.471C576.587,218.045,575.59,217.092,574.572,216.185Z" transform="translate(-420.216 -167.956)"/><path class="h" d="M552.622,198.965l-.377.556c1.117.751,2.222,1.553,3.284,2.38l.415-.529C554.868,200.536,553.751,199.726,552.622,198.965Z" transform="translate(-404.734 -155.771)"/><path class="h" d="M533.4,187.005v.76c.7.366,1.392.749,2.07,1.14l.336-.582Q534.627,187.64,533.4,187.005Z" transform="translate(-391.403 -147.308)"/><path class="h" d="M641.57,365.192l.672-.012c.012.679.013,1.361,0,2.028l-.672-.01C641.583,366.538,641.582,365.863,641.57,365.192Z" transform="translate(-467.94 -273.384)"/><path class="g" d="M146.661,198.695h-.5v-.5h-.1v.5h-.5v.1h.5v.5h.1v-.5h.5Z" transform="translate(-103.007 -140.245)"/><path class="g" d="M127.12,301.052h-.5v-.5h-.1v.5h-.5v.1h.5v.5h.1v-.5h.5Z" transform="translate(-89.18 -212.673)"/><path class="g" d="M69.783,390.76h-.5v-.5h-.1v.5h-.5v.1h.5v.5h.1v-.5h.5Z" transform="translate(-48.608 -276.15)"/><path class="a" d="M264.824,194.018A35.91,35.91,0,1,1,281.486,207.4a11.616,11.616,0,1,1-16.662-13.378Z" transform="translate(-197.011 -112.676)"/><path class="f" d="M348.8,190.679c8.232,0,13.9,4.566,13.9,11.13,0,4.347-2.107,7.354-6.169,9.747-3.82,2.217-5.115,3.842-5.115,6.652h0a1.734,1.734,0,0,1-1.734,1.734h-4.209a1.734,1.734,0,0,1-1.733-1.674l-.007-.214c-.373-4.522,1.207-7.332,5.181-9.659,3.71-2.217,5.269-3.622,5.269-6.344s-2.634-4.72-5.905-4.72a5.625,5.625,0,0,0-5.356,3.186,3.875,3.875,0,0,1-3.542,2.214h0a3.809,3.809,0,0,1-3.4-5.553C338.08,193.192,342.531,190.679,348.8,190.679Zm-5.774,37.627a4.713,4.713,0,1,1,4.7,4.522A4.6,4.6,0,0,1,343.023,228.306Z" transform="translate(-251.39 -149.908)"/></g></g></svg>