<svg xmlns="http://www.w3.org/2000/svg" xmlns:xlink="http://www.w3.org/1999/xlink" width="74" height="72" viewBox="0 0 74 72"><defs><style>.a,.b{fill:#fff;}.a{stroke:#707070;}.b{opacity:0.4;}.c{clip-path:url(#a);}.d{fill:#56aade;}.e{fill:#a6d4f0;}</style><clipPath id="a"><rect class="a" width="44" height="44" transform="translate(578 381.505)"/></clipPath></defs><g transform="translate(-563 -368.183)"><rect class="b" width="74" height="72" transform="translate(563 368.183)"/><g class="c"><g transform="translate(578 381.505)"><path class="d" d="M42.647,14.494a2.557,2.557,0,0,0-3.417-.175c-.145.118-.033.014-2.24,2.221l5.729,5.73,2.059-2.033a2.556,2.556,0,0,0,0-3.611Z" transform="translate(-1.948 -0.724)"/><path class="d" d="M24.393,28.654l-3.37,7.222a1.277,1.277,0,0,0,1.7,1.7l7.222-3.37c.286-.133-.579.676,10.113-9.883L34.337,18.6c-10.6,10.6-9.808,9.761-9.944,10.052Z" transform="translate(-1.101 -0.98)"/><path class="e" d="M30.992,34.792a3.821,3.821,0,0,1-1.071.745L22.7,38.907a3.83,3.83,0,0,1-5.09-5.091l3.37-7.222a3.82,3.82,0,0,1,.762-1.088L32.6,14.648V3.83A3.834,3.834,0,0,0,28.769,0H3.831A3.834,3.834,0,0,0,0,3.83V39.748a3.834,3.834,0,0,0,3.83,3.83H28.769a3.834,3.834,0,0,0,3.83-3.83V33.2ZM6.81,8.256H25.875a1.277,1.277,0,0,1,0,2.553H6.81a1.277,1.277,0,0,1,0-2.553Zm0,6.809h14.98a1.277,1.277,0,1,1,0,2.553H6.81a1.277,1.277,0,0,1,0-2.553ZM5.533,23.151A1.277,1.277,0,0,1,6.81,21.874H17.7a1.277,1.277,0,0,1,0,2.553H6.81A1.277,1.277,0,0,1,5.533,23.151Z" transform="translate(-0.001 0)"/></g></g></g></svg>