<svg xmlns="http://www.w3.org/2000/svg" xmlns:xlink="http://www.w3.org/1999/xlink" width="74" height="72" viewBox="0 0 74 72"><defs><style>.a,.b{fill:#fff;}.a{stroke:#707070;}.b{opacity:0.4;}.c{clip-path:url(#a);}.d{fill:#56aade;}.e{fill:#a6d4f0;}</style><clipPath id="a"><rect class="a" width="46" height="46" transform="translate(445 381.505)"/></clipPath></defs><g transform="translate(-431 -368.183)"><rect class="b" width="74" height="72" transform="translate(431 368.183)"/><g class="c" transform="translate(0 -0.322)"><g transform="translate(445 381.505)"><path class="d" d="M7.037,5.428h0a1.622,1.622,0,0,0-1.153.478A1.639,1.639,0,0,0,5.4,7.075V31.757A1.652,1.652,0,0,0,7.043,33.4c3.831.009,10.251.808,14.679,5.442V13.014a1.577,1.577,0,0,0-.226-.834C17.861,6.327,10.877,5.437,7.037,5.428Z"/><path class="d" d="M40.605,31.757V7.074a1.639,1.639,0,0,0-.484-1.168,1.623,1.623,0,0,0-1.153-.478h0c-3.84.009-10.825.9-14.459,6.752a1.577,1.577,0,0,0-.226.834V38.845c4.428-4.634,10.848-5.433,14.679-5.442A1.652,1.652,0,0,0,40.605,31.757Z"/><path class="e" d="M44.354,11.121H43.161V31.757a4.211,4.211,0,0,1-4.2,4.2c-3.25.008-8.609.643-12.4,4.235,6.564-1.607,13.483-.562,17.426.336A1.646,1.646,0,0,0,46,38.926V12.767A1.648,1.648,0,0,0,44.354,11.121Z"/><path class="e" d="M2.839,31.757V11.121H1.646A1.648,1.648,0,0,0,0,12.767V38.926a1.646,1.646,0,0,0,2.014,1.6c3.943-.9,10.863-1.943,17.426-.336-3.795-3.592-9.154-4.227-12.4-4.235A4.211,4.211,0,0,1,2.839,31.757Z"/></g></g></g></svg>