<svg xmlns="http://www.w3.org/2000/svg" xmlns:xlink="http://www.w3.org/1999/xlink" width="50" height="58" viewBox="0 0 50 58"><defs><style>.a,.c{fill:#443eff;}.b{clip-path:url(#a);}.c{fill-rule:evenodd;}</style><clipPath id="a"><rect class="a" width="50" height="58" transform="translate(0 0)"/></clipPath></defs><g class="b" transform="translate(0 0)"><path class="c" d="M36.858,36.631a66.44,66.44,0,0,1-15.638,10.7l-.7.345a1.647,1.647,0,0,1-1.458,0l-.7-.345A66.441,66.441,0,0,1,2.715,36.631,8.414,8.414,0,0,1,0,30.447v-18.1a1.688,1.688,0,0,1,.058-.435,1.674,1.674,0,0,1-.015-.742,1.738,1.738,0,0,1,.88-1.116L18.994.189a1.655,1.655,0,0,1,1.585,0L35.533,8.349l3.17,1.73a1.678,1.678,0,0,1,.871,1.474V30.447a8.413,8.413,0,0,1-2.715,6.183Zm-31.9-2.477A63.131,63.131,0,0,0,19.788,44.3,63.086,63.086,0,0,0,34.62,34.154a5.043,5.043,0,0,0,1.63-3.706V14.11l-3.924,1.777v9.381a5.722,5.722,0,0,1-1.847,4.2,40.551,40.551,0,0,1-9.538,6.523l-.423.206a1.643,1.643,0,0,1-1.46,0l-.422-.206A40.551,40.551,0,0,1,9.1,29.471a5.722,5.722,0,0,1-1.847-4.2V15.887L3.328,14.131V30.447a5.046,5.046,0,0,0,1.63,3.708ZM19.594,21.319a1.649,1.649,0,0,1-.482-.124l-8.534-3.819v7.892A2.352,2.352,0,0,0,11.338,27a37.209,37.209,0,0,0,8.256,5.729Zm.193-17.751L5.428,11.4l14.359,6.426,14.325-6.444-.164-.09Z" transform="translate(5.254 3.996)"/></g></svg>