<svg xmlns="http://www.w3.org/2000/svg" xmlns:xlink="http://www.w3.org/1999/xlink" width="131" height="40" viewBox="0 0 131 40"><defs><style>.a,.c,.d{fill:#443eff;}.b{clip-path:url(#a);}.c{fill-rule:evenodd;}.d{font-size:18px;font-family:Oswald-Regular, Oswald;}</style><clipPath id="a"><rect class="a" width="35" height="40"/></clipPath></defs><g transform="translate(-16 -12)"><g class="b" transform="translate(16 12)"><path class="c" d="M25.64,25.478a46.218,46.218,0,0,1-10.878,7.44l-.49.24a1.146,1.146,0,0,1-1.014,0l-.49-.24a46.219,46.219,0,0,1-10.879-7.44A5.853,5.853,0,0,1,0,21.176V8.583a1.174,1.174,0,0,1,.041-.3,1.164,1.164,0,0,1-.01-.516,1.209,1.209,0,0,1,.612-.776L13.213.127a1.152,1.152,0,0,1,1.1,0L24.718,5.8l2.205,1.2a1.167,1.167,0,0,1,.606,1.025V21.176a5.852,5.852,0,0,1-1.889,4.3ZM3.448,23.755a43.916,43.916,0,0,0,10.317,7.058,43.885,43.885,0,0,0,10.317-7.059,3.508,3.508,0,0,0,1.134-2.578V9.811l-2.73,1.236v6.525A3.981,3.981,0,0,1,21.2,20.5a28.209,28.209,0,0,1-6.635,4.538l-.294.144a1.143,1.143,0,0,1-1.015,0l-.293-.144A28.208,28.208,0,0,1,6.329,20.5a3.981,3.981,0,0,1-1.285-2.925V11.047L2.315,9.826v11.35a3.51,3.51,0,0,0,1.134,2.579ZM13.63,14.826a1.147,1.147,0,0,1-.336-.087L7.358,12.083v5.49a1.636,1.636,0,0,0,.529,1.2,25.884,25.884,0,0,0,5.743,3.986Zm.134-12.348L3.776,7.929l9.989,4.47L23.73,7.916l-.114-.063Z" transform="translate(3.655 2.45)"/></g><text class="d" transform="translate(56 38)"><tspan x="0" y="0">LeapScholar</tspan></text></g></svg>