<svg xmlns="http://www.w3.org/2000/svg" xmlns:xlink="http://www.w3.org/1999/xlink" width="50" height="50" viewBox="0 0 50 50"><defs><style>.a{fill:#fff;stroke:#707070;}.b{clip-path:url(#a);}.c{fill:url(#b);}.d{fill:url(#c);}</style><clipPath id="a"><rect class="a" width="50" height="50" transform="translate(-0.481)"/></clipPath><linearGradient id="b" x1="0.5" x2="0.5" y2="1" gradientUnits="objectBoundingBox"><stop offset="0" stop-color="#feaf00"/><stop offset="1" stop-color="#fffbe2"/></linearGradient><linearGradient id="c" x1="0.5" y1="1" x2="0.5" gradientUnits="objectBoundingBox"><stop offset="0" stop-color="#ff8d3a"/><stop offset="1" stop-color="#ff81ff"/></linearGradient></defs><g class="b" transform="translate(0.481)"><g transform="translate(0.559)"><path class="c" d="M21.846,26.41H1.456A1.456,1.456,0,0,0,0,27.866v20.39a1.456,1.456,0,0,0,1.456,1.456h20.39A1.456,1.456,0,0,0,23.3,48.256V27.866A1.456,1.456,0,0,0,21.846,26.41ZM42.431,0H33.692A7.291,7.291,0,0,0,26.41,7.282v8.739A7.291,7.291,0,0,0,33.692,23.3h8.739a7.291,7.291,0,0,0,7.282-7.282V7.282A7.291,7.291,0,0,0,42.431,0Z"/><path class="d" d="M11.651,0A11.651,11.651,0,1,0,23.3,11.651,11.665,11.665,0,0,0,11.651,0ZM49.286,32.809l-5.972-5.972a1.455,1.455,0,0,0-1.03-.427H33.838a1.455,1.455,0,0,0-1.03.427l-5.972,5.972a1.455,1.455,0,0,0-.427,1.03v8.446a1.455,1.455,0,0,0,.427,1.03l5.972,5.972a1.455,1.455,0,0,0,1.03.427h8.446a1.455,1.455,0,0,0,1.03-.427l5.972-5.972a1.455,1.455,0,0,0,.427-1.03V33.838A1.455,1.455,0,0,0,49.286,32.809Z"/></g></g></svg>