<svg xmlns="http://www.w3.org/2000/svg" xmlns:xlink="http://www.w3.org/1999/xlink" width="47" height="47" viewBox="0 0 47 47"><defs><style>.a{fill:#fff;stroke:#707070;}.b{opacity:0.4;clip-path:url(#a);}.c{fill:#a3a3a3;}</style><clipPath id="a"><rect class="a" width="47" height="47" transform="translate(828 149)"/></clipPath></defs><g class="b" transform="translate(-828 -149)"><g transform="translate(828 149.046)"><path class="c" d="M45.731,36.406l-.06-.015-1.232-4.926a1.37,1.37,0,0,0-.688-.878c-.416-.22-8.124-4.233-15.252-3.474,5.453-2.837,13.507-1.3,13.612-1.278a1.37,1.37,0,1,0,.537-2.687,32.245,32.245,0,0,0-8.242-.387c-4.973.432-8.734,2.162-11.024,5.04-2.29-2.878-6.051-4.607-11.024-5.04a32.262,32.262,0,0,0-8.242.387,1.37,1.37,0,0,0,.536,2.687c.1-.021,8.16-1.559,13.612,1.278-7.127-.759-14.836,3.254-15.252,3.474a1.37,1.37,0,0,0-.688.878L1.093,36.391l-.06.015a1.37,1.37,0,1,0,.675,2.656L17,35.174a7.222,7.222,0,0,0,12.761,0l15.294,3.887a1.37,1.37,0,0,0,.675-2.656ZM29.3,32.229a1.37,1.37,0,0,0-1.644.916,4.477,4.477,0,0,1-8.538,0,1.369,1.369,0,0,0-1.644-.916l-13.36,3.4.72-2.88C7.2,31.615,16.856,27.44,22.6,31.458a1.37,1.37,0,0,0,1.571,0c5.727-4.009,15.4.161,17.767,1.287l.72,2.879Z" transform="translate(0 7.568)"/><path class="c" d="M29.6,5.879H30.79V7.066a1.37,1.37,0,0,0,2.74,0V5.879h1.187a1.37,1.37,0,1,0,0-2.74H33.53V1.951a1.37,1.37,0,0,0-2.74,0V3.139H29.6a1.37,1.37,0,1,0,0,2.74Z" transform="translate(9.489 0.149)"/><path class="c" d="M31.555,15.452l-8.768,3.653a1.37,1.37,0,1,0,1.054,2.529l8.768-3.653a1.37,1.37,0,1,0-1.054-2.529Z" transform="translate(7.375 5.112)"/><path class="c" d="M19.715,23.55a1.368,1.368,0,0,0,1.65-1.015L25.018,7.19a1.37,1.37,0,0,0-2.665-.635L18.7,21.9A1.37,1.37,0,0,0,19.715,23.55Z" transform="translate(6.272 1.804)"/><path class="c" d="M14.669,21.124A1.37,1.37,0,0,0,16.023,22.3a1.391,1.391,0,0,0,.2-.014,1.37,1.37,0,0,0,1.163-1.55L15.92,10.507a1.37,1.37,0,1,0-2.713.387Z" transform="translate(4.434 3.09)"/><path class="c" d="M3.751,11.92a1.37,1.37,0,0,0,0,1.937l8.768,8.768a1.37,1.37,0,0,0,1.937-1.937L5.688,11.92a1.37,1.37,0,0,0-1.937,0Z" transform="translate(1.126 3.826)"/><path class="c" d="M4.361,8.62A4.293,4.293,0,1,0,.069,4.327,4.3,4.3,0,0,0,4.361,8.62Zm0-5.845A1.553,1.553,0,1,1,2.809,4.327,1.554,1.554,0,0,1,4.361,2.774Z" transform="translate(0.023 -0.034)"/><circle class="c" cx="1.37" cy="1.37" r="1.37" transform="translate(0.822 23.382)"/><circle class="c" cx="1.37" cy="1.37" r="1.37" transform="translate(34.433 12.421)"/><circle class="c" cx="1.37" cy="1.37" r="1.37" transform="translate(22.012 4.384)"/></g></g></svg>