<svg xmlns="http://www.w3.org/2000/svg" xmlns:xlink="http://www.w3.org/1999/xlink" width="45" height="45" viewBox="0 0 45 45"><defs><style>.a,.c{fill:#fff;}.a{stroke:#707070;}.b{clip-path:url(#a);}.d{fill:#fde69a;}.e,.f{fill:#6b63dd;}.e{fill-rule:evenodd;}</style><clipPath id="a"><rect class="a" width="45" height="45"/></clipPath></defs><g class="b"><rect class="c" width="45" height="45"/><path class="d" d="M2.917,9.87A6.953,6.953,0,0,1,9.87,2.917H33.047A6.953,6.953,0,0,1,40,9.87v17a6.953,6.953,0,0,1-6.953,6.953H9.87a6.953,6.953,0,0,1-6.953-6.953Z" transform="translate(0.792 0.792)"/><path class="e" d="M9.4,31.021a1.854,1.854,0,0,1,1.854-1.854H30.206a1.854,1.854,0,1,1,0,3.708H11.252A1.854,1.854,0,0,1,9.4,31.021Z" transform="translate(2.551 7.917)"/><path class="f" d="M12.537,14.477a3.09,3.09,0,0,1,4.37-4.37l7.138,7.138a3.708,3.708,0,0,1,1.049,2.1l.379,2.651a.927.927,0,0,1-1.049,1.049l-2.651-.379a3.708,3.708,0,0,1-2.1-1.049Z" transform="translate(3.157 2.498)"/></g></svg>