<svg xmlns="http://www.w3.org/2000/svg" xmlns:xlink="http://www.w3.org/1999/xlink" width="50" height="50" viewBox="0 0 50 50"><defs><style>.a{fill:#fff;stroke:#707070;}.b{clip-path:url(#a);}.c{fill:url(#b);}.d{fill:url(#c);}</style><clipPath id="a"><rect class="a" width="50" height="50" transform="translate(-0.481)"/></clipPath><linearGradient id="b" x1="0.5" y1="1" x2="0.5" gradientUnits="objectBoundingBox"><stop offset="0" stop-color="#f8b900"/><stop offset="1" stop-color="#fff2f4"/></linearGradient><linearGradient id="c" x1="0.5" y1="1" x2="0.5" gradientUnits="objectBoundingBox"><stop offset="0" stop-color="#fdb93a"/><stop offset="1" stop-color="#f84c59"/></linearGradient></defs><g class="b" transform="translate(0.481)"><g transform="translate(3.587 0)"><g transform="translate(0 17.683)"><path class="c" d="M46.846,27.277,36.592,21.417a1.455,1.455,0,0,0-1.465,0l-9.521,5.42-9.521-5.42a1.455,1.455,0,0,0-1.465,0L4.365,27.277a1.45,1.45,0,0,0,0,2.52l8.057,4.6,9.521,10.049h7.324L38.789,34.4l8.057-4.6a1.45,1.45,0,0,0,0-2.52Z" transform="translate(-3.633 -21.22)"/></g><path class="d" d="M46.846,35.459l-8.057-4.6L26.338,37.979a1.41,1.41,0,0,1-1.465,0L12.422,30.859l-8.057,4.6a1.45,1.45,0,0,0,0,2.52L24.873,49.795a1.41,1.41,0,0,0,1.465,0L46.846,37.979a1.45,1.45,0,0,0,0-2.52ZM4.371,14.553,24.879,26.272a1.463,1.463,0,0,0,1.453,0L46.84,14.553a1.464,1.464,0,0,0,0-2.543L26.332.193a1.464,1.464,0,0,0-1.453,0L4.371,12.01a1.465,1.465,0,0,0,0,2.543Z" transform="translate(-3.633 0)"/></g></g></svg>