<svg xmlns="http://www.w3.org/2000/svg" xmlns:xlink="http://www.w3.org/1999/xlink" width="45" height="45" viewBox="0 0 45 45"><defs><style>.a,.c{fill:#fff;}.a{stroke:#707070;}.b{clip-path:url(#a);}.d{fill:#e8e8e8;}.e{fill:#56ccf2;}.f{fill:#fde69a;}.g{fill:#6b63dd;}</style><clipPath id="a"><rect class="a" width="45" height="45"/></clipPath></defs><g class="b"><rect class="c" width="45" height="45"/><path class="d" d="M4.806,14.387a2.316,2.316,0,0,1,.848-3.164L18.091,4.042a2.316,2.316,0,0,1,3.164.848L32.838,24.951a2.316,2.316,0,0,1-.848,3.164L19.552,35.3a2.316,2.316,0,0,1-3.164-.848Z" transform="translate(1.217 1.01)"/><path class="e" d="M8.943,10.817A2.316,2.316,0,0,1,10.581,7.98L24.453,4.263A2.316,2.316,0,0,1,27.29,5.9l6,22.375a2.316,2.316,0,0,1-1.638,2.837L17.775,34.83a2.316,2.316,0,0,1-2.837-1.638Z" transform="translate(2.399 1.133)"/><path class="f" d="M13.764,8.017A2.316,2.316,0,0,1,16.081,5.7H30.443a2.316,2.316,0,0,1,2.316,2.316V31.182A2.316,2.316,0,0,1,30.443,33.5H16.081a2.316,2.316,0,0,1-2.316-2.316Z" transform="translate(3.726 1.543)"/><path class="g" d="M22.31,15.575a1.853,1.853,0,0,1,3.706,0v6.486h6.949a2.316,2.316,0,0,1,2.316,2.316V34.8a2.316,2.316,0,0,1-2.316,2.316H25.322v-.065A3.712,3.712,0,0,1,22.63,34.92L16.6,26.609a.927.927,0,0,1,.206-1.294l.375-.272a2.316,2.316,0,0,1,3.235.515l1.894,2.611Z" transform="translate(4.446 3.715)"/></g></svg>