<svg xmlns="http://www.w3.org/2000/svg" xmlns:xlink="http://www.w3.org/1999/xlink" width="50" height="50" viewBox="0 0 50 50"><defs><style>.a{fill:#fff;stroke:#707070;}.b{clip-path:url(#a);}.c{fill:url(#b);}.d{fill:url(#c);}</style><clipPath id="a"><rect class="a" width="50" height="50" transform="translate(-0.481)"/></clipPath><linearGradient id="b" x1="0.5" y1="1" x2="0.5" gradientUnits="objectBoundingBox"><stop offset="0" stop-color="#ffe59a"/><stop offset="1" stop-color="#ffffd5"/></linearGradient><linearGradient id="c" x1="0.5" y1="1" x2="0.5" gradientUnits="objectBoundingBox"><stop offset="0" stop-color="#fd5900"/><stop offset="1" stop-color="#ffde00"/></linearGradient></defs><g class="b" transform="translate(0.481)"><g transform="translate(0.559)"><g transform="translate(11.679 6.034)"><path class="c" d="M33.041,7.266l-7.3,5.84h-4.38a7.3,7.3,0,0,0-7.3,7.3v5.84a1.446,1.446,0,0,0,1.46,1.46A10.231,10.231,0,0,1,25.742,37.924a1.446,1.446,0,0,0,1.46,1.46h5.84a7.3,7.3,0,0,0,7.3-7.3V27.7l5.84-7.3Z" transform="translate(-14.063 -7.266)"/></g><path class="d" d="M48.371,0H24.818a1.446,1.446,0,0,0-1.46,1.46V11.874h7.3a7.3,7.3,0,0,1,7.3,7.3v7.3H48.371a1.446,1.446,0,0,0,1.46-1.46V1.46A1.446,1.446,0,0,0,48.371,0ZM13.139,23.553A13.139,13.139,0,1,0,26.278,36.692,13.154,13.154,0,0,0,13.139,23.553Z"/></g></g></svg>