<svg xmlns="http://www.w3.org/2000/svg" width="211.901" height="27.968" viewBox="0 0 211.901 27.968"><defs><style>.a{fill:#3c3c3c;}.b{fill:#50b848;}</style></defs><g transform="translate(-35.75 -30.926)"><g transform="translate(35.75 30.925)"><g transform="translate(0 0)"><path class="a" d="M93.99,58.383l-2.711-4.709c1.284-2.426,1.284-5.28,1.284-8.99,0-4.709,0-8.134-2.711-10.987a9.572,9.572,0,0,0-7.42-3,10.092,10.092,0,0,0-7.42,3C72.3,36.408,72.3,39.832,72.3,44.684c0,4.709-.143,8.134,2.711,10.987a9.783,9.783,0,0,0,7.42,3,11.09,11.09,0,0,0,2.283-.285ZM78.864,52.39c-1-1.142-1.284-2.426-1.284-7.705s.285-6.564,1.284-7.705a4.823,4.823,0,0,1,6.849,0C86.712,38.12,87,39.4,87,44.684s-.285,6.564-1.284,7.705a4.823,4.823,0,0,1-6.849,0Z" transform="translate(-19.075 -30.7)"/><path class="a" d="M131.4,30.9h5.28V58.3H131.4Z" transform="translate(6.157 -30.615)"/><path class="a" d="M44.989,58.625c-4.138,0-7.277-.856-9.989-3.567l3.425-3.425a9.04,9.04,0,0,0,6.564,2.283c3.139,0,4.852-1.142,4.852-3.425a3.013,3.013,0,0,0-.856-2.283,4.283,4.283,0,0,0-2.426-1l-3.282-.428A9.063,9.063,0,0,1,38,44.5a7.443,7.443,0,0,1-2-5.422c0-4.852,3.567-8.276,9.561-8.276,3.71,0,6.564.856,8.847,3.139l-3.425,3.282a7.335,7.335,0,0,0-5.565-1.855c-2.854,0-4.281,1.57-4.281,3.425a2.817,2.817,0,0,0,.856,2,5.378,5.378,0,0,0,2.568,1.142l3.282.428a8.254,8.254,0,0,1,5.28,2.14,7.98,7.98,0,0,1,2.14,5.85c0,5.28-4.566,8.276-10.274,8.276" transform="translate(-35 -30.657)"/><path class="a" d="M54.6,58.3V30.9H72.722v4.709h-12.7V42.03H70.867v4.852H60.022v6.707h12.7V58.3H54.6" transform="translate(-26.632 -30.615)"/><path class="a" d="M102.231,58.583c-5.565,0-10.131-3.853-10.131-9.7V30.9h5.422V48.737c0,3.139,1.855,4.994,4.709,4.994s4.709-1.855,4.709-4.994V30.9h5.28V48.879c0,5.85-4.424,9.7-9.989,9.7" transform="translate(-10.622 -30.615)"/><path class="a" d="M129.252,55.671a9.572,9.572,0,0,1-7.42,3,10.092,10.092,0,0,1-7.42-3C111.7,52.96,111.7,49.536,111.7,44.684c0-4.709-.143-8.134,2.711-10.987a9.572,9.572,0,0,1,7.42-3,10.332,10.332,0,0,1,7.42,3c2.711,2.711,2.711,6.136,2.711,10.987,0,4.709,0,8.134-2.711,10.987m-4-18.693a4.823,4.823,0,0,0-6.849,0c-1,1.142-1.284,2.426-1.284,7.705s.285,6.564,1.284,7.705a4.823,4.823,0,0,0,6.849,0c1-1.142,1.284-2.426,1.284-7.705s-.285-6.564-1.284-7.705" transform="translate(-2.254 -30.7)"/><path class="a" d="M158.35,58.3l-1.57-4.852h-9.7L145.365,58.3H139.8l9.989-27.4h4.138l9.989,27.4Zm-6.421-19.406L148.5,48.879h6.849l-3.425-9.989Z" transform="translate(9.743 -30.615)"/><path class="b" d="M178.7,30.9h6.849v6.849H178.7Z" transform="translate(26.352 -30.615)"/><path class="b" d="M167.725,52.447V30.9H164.3V55.871l3.425-3.425" transform="translate(20.204 -30.615)"/><path class="b" d="M169.425,47.7,166,51.125h24.971V47.7H169.425" transform="translate(20.929 -23.442)"/><path class="b" d="M172.525,45.6V30.9H169.1V49.022l3.425-3.425" transform="translate(22.253 -30.615)"/><path class="b" d="M174.225,42.9,170.8,46.325h18.122V42.9h-14.7" transform="translate(22.979 -25.491)"/><path class="b" d="M177.325,38.748V30.9H173.9V42.173l3.425-3.425" transform="translate(24.302 -30.615)"/><path class="b" d="M179.025,38.1,175.6,41.525h11.273V38.1h-7.848" transform="translate(25.028 -27.541)"/></g></g></g></svg>