<svg xmlns="http://www.w3.org/2000/svg" width="60.276" height="60.27" viewBox="0 0 60.276 60.27"><defs><style>.a{fill:#ff7791;}</style></defs><path class="a" d="M56.847,25.683c-.928-.684-2.1-1.538-2.238-2.1a7.017,7.017,0,0,1,.9-3.074c.818-1.876,1.661-3.821.723-5.438s-3.071-1.879-5.123-2.1a6.98,6.98,0,0,1-3.063-.731,6.978,6.978,0,0,1-.729-3.074C47.088,7.121,46.85,5,45.222,4.05s-3.574-.118-5.451.71a7.036,7.036,0,0,1-3.076.9c-.566-.152-1.418-1.31-2.1-2.238C33.409,1.82,32.07,0,30.136,0S26.863,1.82,25.681,3.424c-.687.93-1.538,2.1-2.1,2.241a7.188,7.188,0,0,1-3.076-.9c-1.887-.831-3.831-1.659-5.443-.726s-1.882,3.071-2.112,5.136a7.013,7.013,0,0,1-.729,3.063,7,7,0,0,1-3.053.718c-2.054.231-4.18.469-5.126,2.1s-.115,3.572.713,5.451a7.013,7.013,0,0,1,.9,3.084c-.152.566-1.31,1.42-2.238,2.1C1.819,26.862,0,28.2,0,30.138s1.819,3.276,3.425,4.455c.928.684,2.1,1.538,2.238,2.1a7.017,7.017,0,0,1-.9,3.074C3.944,41.639,3.1,43.584,4.038,45.2S7.11,47.08,9.161,47.3a6.98,6.98,0,0,1,3.063.731,6.978,6.978,0,0,1,.729,3.074c.231,2.052.469,4.175,2.1,5.123s3.559.094,5.438-.723a7.2,7.2,0,0,1,3.1-.891c.566.152,1.418,1.31,2.1,2.238,1.182,1.6,2.521,3.422,4.455,3.422s3.273-1.819,4.455-3.422c.687-.93,1.538-2.1,2.1-2.241a7.075,7.075,0,0,1,3.076.9c1.876.818,3.821,1.656,5.435.726s1.882-3.071,2.112-5.126a7.013,7.013,0,0,1,.729-3.063,7,7,0,0,1,3.061-.726c2.054-.231,4.18-.469,5.126-2.1s.092-3.559-.723-5.438a7.012,7.012,0,0,1-.891-3.1c.152-.566,1.31-1.42,2.238-2.1,1.6-1.182,3.425-2.524,3.425-4.455S58.454,26.862,56.847,25.683Z" transform="translate(0 -0.001)"/></svg>