<svg xmlns="http://www.w3.org/2000/svg" width="20" height="20" viewBox="0 0 20 20"><defs><style>.a{fill:#443eff;}.b{fill:#fff;}</style></defs><g transform="translate(-1150 -3534)"><path class="a" d="M9.2,1.045a1,1,0,0,1,1.591,0l1.33,1.747a1,1,0,0,0,1.012.371l2.124-.47a1,1,0,0,1,1.215,1.016l-.088,2.246a1,1,0,0,0,.529.922L18.875,7.92a1,1,0,0,1,.274,1.55l-1.5,1.672a1,1,0,0,0-.182,1.042l.845,2.092a1,1,0,0,1-.791,1.365l-2.172.3a1,1,0,0,0-.818.691l-.667,2.121a1,1,0,0,1-1.494.542L10.54,18.118a1,1,0,0,0-1.08,0L7.628,19.293a1,1,0,0,1-1.494-.542L5.467,16.63a1,1,0,0,0-.818-.691l-2.172-.3a1,1,0,0,1-.791-1.365l.845-2.092a1,1,0,0,0-.182-1.042L.851,9.47a1,1,0,0,1,.274-1.55L3.084,6.876a1,1,0,0,0,.529-.922L3.524,3.708A1,1,0,0,1,4.739,2.692l2.124.47a1,1,0,0,0,1.012-.371Z" transform="translate(1150 3534)"/><path class="b" d="M3.112,6.311a.938.938,0,0,1-.6-.217L.359,4.148a1.017,1.017,0,0,1-.149-1.4A.937.937,0,0,1,1.558,2.6L3.043,3.992,6.616.291a.937.937,0,0,1,1.357,0,1.019,1.019,0,0,1,0,1.405L3.791,6.027A.941.941,0,0,1,3.112,6.311Z" transform="matrix(0.996, 0.087, -0.087, 0.996, 1156.426, 3541.221)"/></g></svg>